<?xml version="1.0" encoding="UTF-8" standalone="no"?>
<svg xmlns="http://www.w3.org/2000/svg" version="1.1" viewBox="0 0 855.31595 676.00569" height="676.00569"
     width="855.31595">
    <path class="swing" d="M597.31597 584.85334C597.31597 584.85334 595.31597 584.85334 595.31597 584.85334C595.31597 584.85334 595.31597 366.00568 595.31597 366.00568C595.318770374 364.200016376 594.505468473 362.489784959 593.10308 361.35236C593.10308 361.35236 594.36676 359.80158 594.36676 359.80158C596.236007698 361.318351217 597.319894988 363.598468651 597.31597 366.00568C597.31597 366.00568 597.31597 584.85334 597.31597 584.85334"
          fill="#3f3d56"/>
    <path d="M393.57997 23.23284C394.097388203 24.4135129746 394.483051598 25.6476358378 394.72997 26.91284C394.17004 24.98284 393.73004 23.67284 393.57997 23.23284C393.57997 23.23284 393.57997 23.23284 393.57997 23.23284"
          fill="#3f3d56"/>
    <path d="M411.31997 84.37284C411.31997 84.37284 411.31997 85.75284 409.82997 90.73284C409.82997 90.73284 411.31997 84.37284 411.31997 84.37284"
          fill="#3f3d56"/>
    <path d="M593.91003 292.68284C554.58003 313.18284 503.13003 330.88284 487.72003 336.01284C499.47003 332.95284 533.67003 328.83284 586.66003 361.89284C653.24003 403.42284 724.43003 375.73284 724.43003 375.73284C724.43003 375.73284 708.61003 406.06284 674.99003 408.03284C641.36997 410.01284 553.70003 354.64284 524.04003 370.46284C494.37003 386.28284 480.53003 366.50284 468.66003 406.06284C456.80003 445.61284 435.05003 553.71284 460.10003 614.36284C460.10003 614.36284 485.13997 675.00284 485.13997 675.00284C485.13997 675.00284 342.75997 675.00284 342.75997 675.00284C342.75997 675.00284 394.17997 537.89284 365.82997 453.52284C349.95997 406.27284 327.67997 372.05284 319.36997 354.66284C315.19997 345.95284 314.53997 341.47284 319.93997 341.69284C323.00997 341.82284 328.03997 343.47284 335.50997 346.73284C335.50997 346.73284 301.22997 313.11284 290.02997 313.11284C278.81997 313.11284 226.07997 307.84284 208.94997 290.04284C208.94997 290.04284 184.55997 272.90284 141.04997 315.09284C97.53997 357.28284 108.08997 357.28284 69.19997 353.98284C30.91997 350.73284 0.92997 332.16284 -2.99999999527e-05 331.58284C1.10997 332.03284 45.81997 349.90284 73.14997 340.80284C100.83997 331.57284 124.56997 296.63284 148.95997 284.77284C173.34997 272.90284 187.84997 257.08284 220.80997 274.22284C220.80997 274.22284 199.08997 223.01284 199.08997 223.01284C199.08997 223.01284 193.13997 208.98284 193.13997 208.98284C193.13997 208.98284 193.12997 208.96284 193.12997 208.96284C193.12997 208.96284 185.86997 112.72284 172.02997 106.13284C158.18997 99.53284 166.75997 82.40284 141.04997 79.10284C141.04997 79.10284 172.68997 75.14284 178.61997 96.90284C184.55997 118.65284 225.43003 235.99284 225.43003 235.99284C225.43003 235.99284 250.47003 286.08284 278.16003 274.22284C305.85003 262.35284 267.61003 195.78284 267.61003 195.78284C267.61003 195.78284 220.15003 174.02284 220.15003 174.02284C220.15003 174.02284 255.75003 172.70284 277.50003 193.14284C299.25003 213.57284 300.57003 279.49284 300.57003 279.49284C300.57003 279.49284 355.28003 287.40284 368.47003 317.07284C368.47003 317.07284 377.04003 290.70284 360.56003 274.88284C356.44003 270.92284 352.11008 264.04284 347.94003 255.95284C332.132862621 224.901842703 326.420151312 189.688606287 331.60003 155.23284C334.05003 138.37284 335.56003 121.88284 332.87003 117.99284C326.94003 109.42284 301.89003 56.69284 299.91003 42.84284C297.94003 29.00284 301.89003 0.00284000000012 301.89003 0.00284000000012C301.89003 0.00284000000012 302.55003 35.59284 310.46003 46.80284C318.37003 58.01284 340.78003 113.38284 340.78003 113.38284C340.78003 113.38284 340.78003 183.25284 359.24003 217.53284C377.70003 251.81284 413.29003 290.04284 411.31998 315.09284C411.31998 315.09284 411.31998 329.59284 411.31998 329.59284C411.31998 329.59284 450.86998 292.02284 448.22998 279.49284C445.58998 266.97284 442.29998 237.30284 417.24998 219.51284C392.19998 201.71284 375.71998 173.36284 393.51998 132.49284C403.52998 109.50284 407.90998 97.15284 409.82998 90.74284C409.82998 90.74284 399.44998 135.13284 399.44998 135.13284C399.44998 135.13284 392.85998 180.61284 411.31998 196.43284C411.36998 196.47284 411.40998 196.51284 411.45998 196.55284C429.88998 212.39284 454.15998 241.26284 454.15998 241.26284C454.15998 241.26284 454.08998 239.99284 454.08998 239.99284C454.08998 239.99284 448.88998 146.34284 448.88998 146.34284C448.88998 146.34284 450.02998 148.84284 450.02998 148.84284C450.02998 148.84284 458.24998 166.86284 458.24998 166.86284C458.24998 166.86284 466.02998 183.91284 466.02998 183.91284C466.02998 183.91284 502.93998 136.45284 546.44998 120.63284C589.94998 104.81284 616.97998 49.44284 616.97998 49.44284C616.97998 49.44284 653.89998 20.43284 653.89998 20.43284C653.89998 20.43284 623.56998 56.69284 623.56998 56.69284C623.56998 56.69284 614.33998 99.53284 562.26998 129.86284C510.18998 160.18284 476.57998 205.00284 474.59998 232.69284C472.61998 260.38284 470.63998 284.77284 470.63998 284.77284C470.63998 284.77284 568.19998 281.47284 589.94998 238.62284C611.70998 195.78284 629.50998 193.80284 629.50998 193.80284C629.50998 193.80284 616.97998 230.71284 616.97998 230.71284C616.97998 230.71284 603.13998 262.35284 603.13998 262.35284C603.13998 262.35284 659.82998 263.67284 689.48998 297.29284C719.15998 330.91284 792.97998 340.80284 792.97998 340.80284C792.97998 340.80284 751.45998 352.00284 751.45998 352.00284C751.45998 352.00284 711.89998 338.82284 674.32998 314.43284C636.75998 290.04284 640.71002 268.29284 593.91003 292.68284C593.91003 292.68284 593.91003 292.68284 593.91003 292.68284"
          fill="#3f3d56"/>
    <path d="M614.93002 202.74284C610.76002 221.20284 605.85002 239.03284 598.95002 252.62284C577.20002 295.47284 479.64002 298.77284 479.64002 298.77284C479.64002 298.77284 480.10002 293.11284 480.80002 284.18284C505.57002 282.14284 573.28002 273.43284 590.95002 238.62284C592.57002 235.44284 594.07002 232.02284 595.49002 228.42284C595.49002 228.42284 614.93002 202.74284 614.93002 202.74284"
          opacity="0.1"/>
    <path d="M463.16003 255.26284C463.16003 255.26284 438.77003 226.25284 420.32003 210.43284C416.27003 206.97284 413.43008 202.07284 411.46003 196.55284C411.30003 196.11284 411.15003 195.66284 411.00003 195.21284C411.43003 195.63284 411.86003 196.04284 412.32003 196.43284C428.47003 210.28284 449.18008 234.24284 454.09003 239.99284C454.78003 240.81284 455.16003 241.26284 455.16003 241.26284C455.16003 241.26284 450.03003 148.84284 450.03003 148.84284C450.03003 148.84284 458.25003 166.86284 458.25003 166.86284C458.25003 166.86284 463.16003 255.26284 463.16003 255.26284"
          opacity="0.1"/>
    <path d="M477.27853 172.03027C477.13461 188.25994 475.02817 197.91272 475.02817 197.91272C475.02817 197.91272 511.92709 150.47172 555.42148 134.64117C557.99203 133.01495 560.59994 131.41381 563.26913 129.85955C615.34482 99.53698 624.57346 56.68994 624.57346 56.68994C624.57346 56.68994 654.89596 20.43475 654.89596 20.43475C654.89596 20.43475 617.98154 49.4389 617.98154 49.4389C617.98154 49.4389 590.95492 104.81048 547.44882 120.6309C517.79306 131.41484 491.20497 156.89624 477.27853 172.03027C477.27853 172.03027 477.27853 172.03027 477.27853 172.03027"
          opacity="0.1"/>
    <path d="M420.31576 329.09063C420.31576 329.09063 420.31576 343.59271 420.31576 343.59271C420.31576 343.59271 459.86691 306.01916 457.23007 293.49462C455.21371 283.91632 452.79941 264.31781 440.57675 247.66473C446.08615 260.24973 447.76303 272.52563 449.23007 279.49462C451.12094 288.47589 431.31869 310.33662 419.96249 321.98762C420.360892817 324.332970324 420.47947917 326.717322396 420.31576 329.09063C420.31576 329.09063 420.31576 329.09063 420.31576 329.09063"
          opacity="0.1"/>
    <path d="M367.26157 229.56984C367.5748 230.23793 367.8978 230.89534 368.24008 231.53114C378.34848 250.30385 393.58808 270.25899 404.99033 288.58894C395.77497 270.43658 379.73764 249.67901 367.26157 229.56984C367.26157 229.56984 367.26157 229.56984 367.26157 229.56984"
          opacity="0.1"/>
    <path d="M587.65903 361.89284C565.97458 348.3669 547.44003 341.0677 532.29941 337.36964C516.41708 343.34764 503.34531 347.80489 496.76791 349.99348C508.56406 346.93996 542.73959 342.88368 595.65903 375.89284C637.17953 401.79164 680.49203 400.77077 707.21493 396.33418C714.605437828 390.758164022 720.799456611 383.753197046 725.4288 375.73567C725.4288 375.73567 654.23679 403.42144 587.65903 361.89284C587.65903 361.89284 587.65903 361.89284 587.65903 361.89284"
          opacity="0.1"/>
    <path d="M399.39841 201.50604C394.08273 188.4815 393.20688 172.98346 399.31381 154.82269C399.237368898 148.241100637 399.617145405 141.662125884 400.45041 135.13305C400.45041 135.13305 410.82997 90.73184 410.82997 90.73184C408.91628 97.13491 404.53774 109.48751 394.51772 132.4963C381.83285 161.62457 386.56697 184.38584 399.39841 201.50604C399.39841 201.50604 399.39841 201.50604 399.39841 201.50604"
          opacity="0.1"/>
    <path d="M690.49203 297.2926C669.92038 273.97808 636.3558 266.20007 617.71003 263.62121C617.71003 263.62121 612.13874 276.35577 612.13874 276.35577C612.13874 276.35577 668.82868 277.67419 698.49201 311.2926C714.9416 329.93554 744.96907 341.27789 768.46028 347.68621C768.46028 347.68621 793.98408 340.79888 793.98408 340.79888C793.98408 340.79888 720.15536 330.91107 690.49203 297.2926C690.49203 297.2926 690.49203 297.2926 690.49203 297.2926"
          opacity="0.1"/>
    <path d="M287.16025 288.22113C314.84604 276.35577 276.61337 209.77807 276.61337 209.77807C276.61337 209.77807 275.56747 209.2987 275.56747 209.2987C285.09909 229.40918 298.92282 265.75146 279.16025 274.22113C260.66782 282.14648 243.35425 262.42895 233.8934 248.45913C234.23691 249.44713 234.42551 249.98843 234.42551 249.98843C234.42551 249.98843 259.47446 300.08648 287.16025 288.22113C287.16025 288.22113 287.16025 288.22113 287.16025 288.22113"
          opacity="0.1"/>
    <path d="M377.46872 331.06817C377.46872 331.06817 385.81113 305.35345 370.13901 289.47674C373.98215 303.15429 369.46872 317.06817 369.46872 317.06817C359.27011 294.12146 324.22629 284.19409 308.87656 280.87402C309.47189 288.51373 309.57256 293.49462 309.57256 293.49462C309.57256 293.49462 364.28497 301.40484 377.46872 331.06817C377.46872 331.06817 377.46872 331.06817 377.46872 331.06817"
          opacity="0.1"/>
    <path d="M410.82997 90.73184C412.31545 85.76144 412.31581 84.37576 412.31581 84.37576C412.31581 84.37576 410.82997 90.73184 410.82997 90.73184"
          opacity="0.1"/>
    <path d="M81.75363 354.92484C81.88657 354.88205 82.02158 354.84293 82.15363 354.79892C109.83942 345.57029 133.57013 310.63346 157.96002 298.76816C182.34991 286.90286 196.85187 271.08237 229.8111 288.22116C229.8111 288.22116 224.04498 264.6188 212.8711 249.11233C216.572123571 257.207448681 219.563354437 265.608601622 221.8111 274.22116C188.85187 257.08236 174.34979 272.9028 149.96002 284.76816C125.57025 296.63352 101.83942 331.57029 74.15363 340.79892C46.46784 350.02755 0.98407 331.57029 0.98407 331.57029C0.98407 331.57029 31.30658 350.68668 70.19855 353.98258C74.64755 354.35955 78.44369 354.69226 81.75363 354.92484C81.75363 354.92484 81.75363 354.92484 81.75363 354.92484"
          opacity="0.1"/>
    <path d="M202.12997 222.96284C202.12997 222.96284 201.04997 222.98284 199.08997 223.01284C199.08997 223.01284 193.13997 208.98284 193.13997 208.98284C193.78997 208.97284 194.12997 208.96284 194.12997 208.96284C194.12997 208.96284 189.54997 148.26289 180.72997 119.97284C180.83997 120.02284 180.92997 120.08284 181.02997 120.13284C194.86997 126.72284 202.12997 222.96284 202.12997 222.96284C202.12997 222.96284 202.12997 222.96284 202.12997 222.96284"
          opacity="0.1"/>
    <path d="M356.57602 675.00584C368.65414 637.98027 397.70102 535.59471 374.83202 467.51952C364.95592 438.12071 355.80175 419.37395 348.0631 407.41417C353.85033 418.7357 360.1776 433.71105 366.83202 453.51952C395.17697 537.89526 343.76047 675.00584 343.76047 675.00584C343.76047 675.00584 356.57602 675.00584 356.57602 675.00584"
          opacity="0.1"/>
    <path d="M344.50997 360.73284C336.555969688 357.235467968 328.043499982 355.180150103 319.36997 354.66284C315.19997 345.95284 314.53997 341.47284 319.93997 341.69284C321.43997 341.96284 322.94997 342.28284 324.44997 342.65284C335.05004 351.45284 344.50997 360.73284 344.50997 360.73284C344.50997 360.73284 344.50997 360.73284 344.50997 360.73284"
          opacity="0.1"/>
    <path d="M166.05514 99.72961C166.807059454 100.995816272 167.718080036 102.16048774 168.76596 103.19519C167.99631242 101.941203166 167.086891075 100.778576203 166.05514 99.72961C166.05514 99.72961 166.05514 99.72961 166.05514 99.72961"
          opacity="0.1"/>
    <path d="M286.50107 207.14135C287.519953492 208.104856289 288.474595944 209.134101947 289.35886 210.22247C286.47128 203.28094 282.90536 197.27856 278.50107 193.14135C256.74807 172.7066 221.15195 174.02496 221.15195 174.02496C221.15195 174.02496 265.79306 194.48547 265.79306 194.48547C273.442459298 197.33914889 280.472496504 201.63561713 286.50107 207.14135C286.50107 207.14135 286.50107 207.14135 286.50107 207.14135"
          opacity="0.1"/>
    <path d="M333.87265 117.9942C336.56284 121.87988 335.05136 138.37011 332.59555 155.2352C327.417734529 189.689669851 333.132458272 224.900992444 348.94125 255.94938C351.041187184 260.104260445 353.386605831 264.130445416 355.96506 268.00657C340.899756498 237.417195395 335.537344987 202.955932055 340.59555 169.2352C343.05136 152.3702 344.56284 135.87992 341.87265 131.9942C335.94003 123.4248 310.89096 70.68994 308.91342 56.84704C308.32049852 51.4766475894 308.182340568 46.0657633074 308.50042 40.67211C303.37993 26.14361 302.89092 1.42108547152e-14 302.89092 1.42108547152e-14C302.89092 1.42108547152e-14 298.93584 29.00421 300.91338 42.847C302.89092 56.68979 327.94003 109.42484 333.87265 117.9942C333.87265 117.9942 333.87265 117.9942 333.87265 117.9942"
          opacity="0.1"/>
    <path d="M395.71432 26.86425C395.450197791 25.5613748617 395.049085646 24.2900707578 394.51767 23.07153C394.51767 23.07153 395.02426 24.4942 395.71432 26.86425C395.71432 26.86425 395.71432 26.86425 395.71432 26.86425"
          opacity="0.1"/>
    <path d="M162.8873 93.25284C168.69687 93.96402 175.37949 95.7465 180.4769 99.88035C180.14438 98.75571 179.85434 97.74753 179.62338 96.90035C173.69064 75.14724 142.04977 79.10235 142.04977 79.10235C156.34872 80.93548 160.04208 87.05139 162.8873 93.25284C162.8873 93.25284 162.8873 93.25284 162.8873 93.25284"
          opacity="0.1"/>
    <path d="M784.51438 641.1377C774.68338 656.21395 777.37711 675.389 777.37711 675.389C777.37711 675.389 796.00995 670.12062 805.84092 655.04437C815.67189 639.96812 812.97819 620.79307 812.97819 620.79307C812.97819 620.79307 794.34535 626.06145 784.51438 641.1377C784.51438 641.1377 784.51438 641.1377 784.51438 641.1377"
          fill="#3f3d56"/>
    <path d="M791.89902 643.80322C791.12196 661.78481 777.77384 675.81215 777.77384 675.81215C777.77384 675.81215 765.6856 660.68559 766.46266 642.70401C767.23972 624.72243 780.58784 610.69508 780.58784 610.69508C780.58784 610.69508 792.67609 625.82164 791.89902 643.80322C791.89902 643.80322 791.89902 643.80322 791.89902 643.80322"
          fill="#ffffff"/>
    <path class="swing" d="M618.74567 530.01031C618.74567 530.01031 630.05767 518.14299 634.68742 520.53047C639.31717 522.91795 621.37552 533.52991 621.37552 533.52991C621.37552 533.52991 618.74567 530.01031 618.74567 530.01031"
          fill="#ffb9b9"/>
    <path class="swing" d="M618.74567 530.01031C618.74567 530.01031 630.05767 518.14299 634.68742 520.53047C639.31717 522.91795 621.37552 533.52991 621.37552 533.52991C621.37552 533.52991 618.74567 530.01031 618.74567 530.01031"
          opacity="0.1"/>
    <path class="swing" d="M584.23186 504.10903C584.23186 504.10903 580.07358 511.56241 581.16171 519.5972C582.24984 527.63199 592.20113 553.41461 595.5842 552.95645C598.96727 552.49829 624.02737 534.03206 624.02737 534.03206C624.02737 534.03206 619.24782 527.35847 619.24782 527.35847C619.24782 527.35847 600.94057 538.45057 600.94057 538.45057C600.94057 538.45057 598.15174 498.77877 584.23186 504.10903C584.23186 504.10903 584.23186 504.10903 584.23186 504.10903"
          fill="#d0cde1"/>
    <path class="swing" d="M652.11366 522.25335C652.11366 522.25335 623.57425 537.92967 623.57425 537.92967C623.239363915 538.152182114 622.823145043 538.215003532 622.437504136 538.10124316C622.05186323 537.987482788 621.736380027 537.70881627 621.57588 537.34017C621.57588 537.34017 614.58457 522.72663 614.58457 522.72663C614.31075898 521.865650047 614.708434861 520.933952876 615.51957 520.53606C615.51957 520.53606 639.21446 508.3227 639.21446 508.3227C639.818802788 507.959263111 640.599794839 508.108569148 641.02746 508.6693C641.02746 508.6693 652.86334 519.81984 652.86334 519.81984C653.098802119 520.239531771 653.151885961 520.737411941 653.010205939 521.197314499C652.868525917 521.657217057 652.544474586 522.038914966 652.11366 522.25335C652.11366 522.25335 652.11366 522.25335 652.11366 522.25335"
          fill="#2f2e41"/>
    <polygon class="swing" fill="#ffffff" points="650.209 520.094 623.454 535.387 616.334 522.555 639.286 510.073 650.209 520.094"/>
    <!-- <ellipse cx="799.84505" cy="627.45637" rx="0.39386" ry="0.33582" fill="#f2f2f2"/>
    <ellipse cx="809.77894" cy="640.58483" rx="0.26258" ry="0.22388" fill="#f2f2f2"/> -->
    <path class="swing" d="M584.23186 504.10903C584.23186 504.10903 580.07358 511.56241 581.16171 519.5972C582.24984 527.63199 592.20113 553.41461 595.5842 552.95645C598.96727 552.49829 624.02737 534.03206 624.02737 534.03206C624.02737 534.03206 619.24782 527.35847 619.24782 527.35847C619.24782 527.35847 600.94057 538.45057 600.94057 538.45057C600.94057 538.45057 598.15174 498.77877 584.23186 504.10903C584.23186 504.10903 584.23186 504.10903 584.23186 504.10903"
          opacity="0.1"/>
    <path class="swing" d="M611.09797 532.27793C611.09797 532.27793 623.90029 522.03607 628.16773 525.02328C632.43517 528.01049 613.23173 536.11863 613.23173 536.11863C613.23173 536.11863 611.09797 532.27793 611.09797 532.27793"
          fill="#ffb9b9"/>
    <circle class="swing" transform="matrix(1.000000,0.000000,0.000000,1.000000,0.000000,0.000000)" fill="#ffb9b9" r="12.37558"
            cy="478.93493" cx="594.02819"/>
    <path class="swing" d="M636.70259 565.13722C636.70259 565.13722 649.93166 566.84422 649.50491 574.95234C649.07816 583.06046 639.26306 616.77326 639.26306 616.77326C639.26306 616.77326 638.40957 630.00232 638.40957 630.00232C638.40957 630.00232 639.26306 652.19302 636.70257 651.76632C634.14208 651.33962 628.16769 635.97679 628.16769 635.97679C628.16769 635.97679 620.91304 631.28261 624.32699 627.01517C627.74094 622.74773 630.30141 623.17447 629.44792 618.48028C628.59443 613.78609 629.02118 594.15587 631.58164 588.18145C634.1421 582.20703 635.63407 578.91186 635.63407 578.91186C635.63407 578.91186 627.3142 578.36634 627.3142 578.36634C627.3142 578.36634 636.70259 565.13722 636.70259 565.13722"
          fill="#ffb9b9"/>
    <path class="swing" d="M636.70259 565.13722C636.70259 565.13722 649.93166 566.84422 649.50491 574.95234C649.07816 583.06046 639.26306 616.77326 639.26306 616.77326C639.26306 616.77326 638.40957 630.00232 638.40957 630.00232C638.40957 630.00232 639.26306 652.19302 636.70257 651.76632C634.14208 651.33962 628.16769 635.97679 628.16769 635.97679C628.16769 635.97679 620.91304 631.28261 624.32699 627.01517C627.74094 622.74773 630.30141 623.17447 629.44792 618.48028C628.59443 613.78609 629.02118 594.15587 631.58164 588.18145C634.1421 582.20703 635.63407 578.91186 635.63407 578.91186C635.63407 578.91186 627.3142 578.36634 627.3142 578.36634C627.3142 578.36634 636.70259 565.13722 636.70259 565.13722"
          opacity="0.1"/>
    <path class="swing" d="M637.55608 567.27095C637.55608 567.27095 650.3584 570.25815 651.63863 578.79304C652.91886 587.32793 659.32003 612.50582 659.32003 612.50582C659.32003 612.50582 666.14793 628.29535 666.14793 628.29535C666.14793 628.29535 676.81653 647.49883 672.12235 647.07209C667.42817 646.64535 661.027 637.25697 658.89328 637.25697C656.75956 637.25697 650.3584 634.69651 650.78515 632.98953C651.2119 631.28255 654.19915 626.16163 654.19915 626.16163C654.19915 626.16163 643.87461 608.17695 643.87461 608.17695C641.881080586 604.705244914 640.374259184 600.975973404 639.39646 597.09386C638.33589 592.88168 637.12939 587.72195 637.12939 586.04768C637.12939 583.06048 628.5945 581.78024 628.5945 581.78024C628.5945 581.78024 637.55608 567.27095 637.55608 567.27095"
          fill="#ffb9b9"/>
    <path class="swing" d="M595.73516 539.95932C595.73516 539.95932 601.70958 557.02909 601.70958 557.02909C601.70958 557.02909 611.09795 559.58955 617.92585 561.72327C624.75375 563.85699 637.55608 560.86978 638.83631 565.99071C640.11654 571.11164 636.27585 580.07327 632.43515 582.20699C628.59445 584.34071 626.46073 586.47443 614.08515 583.06048C601.70957 579.64653 572.26423 578.79304 572.26423 578.79304C569.409818365 580.505674555 566.195110897 581.528533064 562.87586 581.78024C557.32818 582.20699 556.04795 582.63373 554.34098 581.3535C552.63401 580.07327 555.19446 580.07327 556.04798 576.65931C556.9015 573.24535 557.32821 574.52559 561.16891 570.6849C565.00961 566.84421 567.99682 555.32211 570.13054 551.48141C572.26426 547.64071 573.54454 539.95932 573.54454 539.95932C573.54454 539.95932 595.73516 539.95932 595.73516 539.95932"
          fill="#2f2e41"/>
    <path class="swing" d="M594.88167 489.17678C591.739438297 491.472568073 589.846203725 495.101265513 589.76074 498.99189C589.76074 505.39305 576.95842 492.16399 576.95842 492.16399C576.95842 492.16399 583.78633 483.62911 583.78633 481.06864C583.78633 478.50817 594.88167 489.17678 594.88167 489.17678C594.88167 489.17678 594.88167 489.17678 594.88167 489.17678"
          fill="#ffb9b9"/>
    <path class="swing" d="M578.6654 486.61632C578.6654 486.61632 586.34679 489.60352 588.05377 493.87096C589.76075 498.1384 596.1619 507.10003 596.1619 507.10003C596.1619 507.10003 605.12353 516.4884 602.13632 526.73026C599.14911 536.97212 596.58865 539.53258 596.58865 541.23956C596.58865 542.94654 592.32121 545.93374 588.90726 545.507C585.49331 545.08026 572.69098 543.37328 571.83749 541.6663C570.984 539.95932 565.86308 515.63491 569.27703 506.6733C572.046479079 499.824960828 575.180416503 493.129728297 578.6654 486.61632C578.6654 486.61632 578.6654 486.61632 578.6654 486.61632"
          fill="#d0cde1"/>
    <path class="swing" d="M597.61759 479.49805C600.38699 480.15532 603.10472 478.39083 605.37395 476.64141C606.66251 475.64802 608.08067 474.23141 607.68586 472.63261C607.33561 471.21425 605.6647 470.4103 605.42152 468.96877C605.25252 467.96708 605.83805 466.99254 605.88552 465.97725C605.799851316 464.399854133 604.841516943 463.001958349 603.40111 462.35331C602.05181 461.62673 600.5215 461.32381 599.13536 460.67358C597.01863 459.68058 595.25944 457.89066 592.99877 457.31729C589.91037 456.53397 586.76565 458.20177 583.59046 458.41768C581.66893 458.54834 579.72286 458.14316 577.82198 458.45838C574.090413357 459.212930442 571.362604019 462.427168101 571.22498 466.23177C571.20049 467.58996 571.4719 469.10526 570.66146 470.18241C570.34116113 470.553403287 569.976450075 470.883595222 569.57554 471.16555C566.75182 473.44905 565.46979 477.26406 565.32403 480.93942C565.25229 482.74836 565.6312 484.89725 567.2361 485.66618C568.095783825 485.960400646 569.004019853 486.086584429 569.91135 486.03786C570.836968176 485.998956573 571.721690085 486.421353734 572.27341 487.16559C573.00441 488.4552 571.90916 490.35998 572.86541 491.4854C573.58371 492.33075 574.98476 492.04999 575.82362 491.32968C576.66248 490.60937 577.18562 489.57343 577.9808 488.8032C579.52765 487.30493 581.82214 487.03334 583.94236 486.80557C584.570659405 486.800739591 585.181852066 486.600319848 585.69101 486.23216C586.076245902 485.82788227 586.326791589 485.314197062 586.4082 484.76173C586.687427958 483.490288504 586.691032165 482.173781313 586.41877 480.90083C586.284256407 480.50674558 586.267283547 480.082041885 586.36992 479.67848C586.510062457 479.391666353 586.72664367 479.149094287 586.99581 478.97748C588.30992 477.99035 590.61201 476.55308 592.31981 476.82495C594.21497 477.12661 595.7059 479.04435 597.61759 479.49805C597.61759 479.49805 597.61759 479.49805 597.61759 479.49805"
          fill="#2f2e41"/>
    <path class="swing" d="M580.37237 501.9791C580.37237 501.9791 575.25145 508.80701 575.25145 516.9151C575.25145 525.02319 581.65261 551.9081 585.06656 551.9081C588.48051 551.9081 615.79213 536.9721 615.79213 536.9721C615.79213 536.9721 611.95144 529.71745 611.95144 529.71745C611.95144 529.71745 592.32121 538.25233 592.32121 538.25233C592.32121 538.25233 594.88167 498.56515 580.37237 501.9791C580.37237 501.9791 580.37237 501.9791 580.37237 501.9791"
          fill="#d0cde1"/>
    <rect class="swing" transform="matrix(1.000000,0.000000,0.000000,1.000000,0.000000,0.000000)" fill="#ffffff" height="19"
          width="98" y="579.00586" x="540.31577"/>
    <path class="swing" d="M589.31597 599.00568C584.899784587 599.000632132 581.321017868 595.421865413 581.31597 591.00568C581.31597 591.00568 581.31597 366.00568 581.31597 366.00568C581.316009617 362.918104981 583.092800635 360.106152329 585.881325607 358.780540027C588.66985058 357.454927724 591.972297291 357.852306332 594.36676 359.80158C594.36676 359.80158 593.10308 361.35236 593.10308 361.35236C591.307291839 359.890554492 588.830585083 359.592653362 586.739376965 360.586926499C584.648168848 361.581199635 583.315803853 363.690138933 583.31597 366.00568C583.31597 366.00568 583.31597 591.00568 583.31597 591.00568C583.319585423 594.317889786 586.003760214 597.002064577 589.31597 597.00568C589.31597 597.00568 589.31597 599.00568 589.31597 599.00568"
          fill="#3f3d56"/>
    <rect transform="matrix(1.000000,0.000000,0.000000,1.000000,0.000000,0.000000)" fill="#3f3d56" height="2"
          width="806" y="674.00569" x="49.31595"/>
    <!-- <ellipse cx="744.65779" cy="583.00301" rx="1" ry="3" fill="#ffffff"/> -->
    <path d="M488.51438 641.1377C478.68338 656.21395 481.37711 675.389 481.37711 675.389C481.37711 675.389 500.00995 670.12062 509.84092 655.04437C519.67189 639.96812 516.97819 620.79307 516.97819 620.79307C516.97819 620.79307 498.34535 626.06145 488.51438 641.1377C488.51438 641.1377 488.51438 641.1377 488.51438 641.1377"
          fill="#3f3d56"/>
    <path d="M495.89902 643.80322C495.12196 661.78481 481.77384 675.81215 481.77384 675.81215C481.77384 675.81215 469.6856 660.68559 470.46266 642.70401C471.23972 624.72243 484.58784 610.69508 484.58784 610.69508C484.58784 610.69508 496.67609 625.82164 495.89902 643.80322C495.89902 643.80322 495.89902 643.80322 495.89902 643.80322"
          fill="#ffffff"/>
    <path d="M326.72539 646.84075C331.42539 664.21462 347.52377 674.97475 347.52377 674.97475C347.52377 674.97475 356.00206 657.56621 351.3021 640.19233C346.60214 622.81845 330.50371 612.05833 330.50371 612.05833C330.50371 612.05833 322.02543 629.46684 326.72539 646.84075C326.72539 646.84075 326.72539 646.84075 326.72539 646.84075"
          fill="#3f3d56"/>
    <path d="M333.63165 643.10691C346.52841 655.66139 348.10365 674.96054 348.10365 674.96054C348.10365 674.96054 328.76912 673.90486 315.87236 661.35039C302.9756 648.79592 301.40036 629.49676 301.40036 629.49676C301.40036 629.49676 320.73489 630.55244 333.63165 643.10691C333.63165 643.10691 333.63165 643.10691 333.63165 643.10691"
          fill="#ffffff"/>
    <path d="M290.88617 172.04661C289.76499 190.01002 276.15077 203.77925 276.15077 203.77925C276.15077 203.77925 264.35434 188.42403 265.47552 170.46062C266.5967 152.49721 280.21091 138.72798 280.21091 138.72798C280.21091 138.72798 292.00735 154.0832 290.88617 172.04661C290.88617 172.04661 290.88617 172.04661 290.88617 172.04661"
          fill="#ffffff"/>
    <path d="M148.96997 58.48507C164.19507 68.08391 169.7483 86.63385 169.7483 86.63385C169.7483 86.63385 150.61676 89.621 135.39167 80.02216C120.16658 70.42332 114.61335 51.87338 114.61335 51.87338C114.61335 51.87338 133.7449 48.88623 148.96997 58.48507C148.96997 58.48507 148.96997 58.48507 148.96997 58.48507"
          fill="#ffffff"/>
    <path d="M114.96997 277.48507C130.19507 287.08391 135.7483 305.63385 135.7483 305.63385C135.7483 305.63385 116.61676 308.621 101.39167 299.02216C86.16658 289.42332 80.61335 270.87338 80.61335 270.87338C80.61335 270.87338 99.7449 267.88623 114.96997 277.48507C114.96997 277.48507 114.96997 277.48507 114.96997 277.48507"
          fill="#ffffff"/>
    <path d="M424.4897 90.50111C419.89823 107.90397 403.86726 118.76429 403.86726 118.76429C403.86726 118.76429 395.28052 101.40898 399.87199 84.00612C404.46346 66.60326 420.49443 55.74294 420.49443 55.74294C420.49443 55.74294 429.08116 73.09825 424.4897 90.50111C424.4897 90.50111 424.4897 90.50111 424.4897 90.50111"
          fill="#ffffff"/>
    <path d="M569.32519 104.07054C563.92864 121.24082 547.40952 131.34315 547.40952 131.34315C547.40952 131.34315 539.63994 113.60697 545.03652 96.43669C550.4331 79.26641 566.95219 69.16408 566.95219 69.16408C566.95219 69.16408 574.72174 86.90026 569.32519 104.07054C569.32519 104.07054 569.32519 104.07054 569.32519 104.07054"
          fill="#ffffff"/>
    <path d="M725.86959 295.16771C716.09411 310.27999 697.48075 315.61682 697.48075 315.61682C697.48075 315.61682 694.7166 296.45182 704.49209 281.33952C714.26758 266.22722 732.88097 260.89041 732.88097 260.89041C732.88097 260.89041 735.64508 280.05543 725.86959 295.16771C725.86959 295.16771 725.86959 295.16771 725.86959 295.16771"
          fill="#ffffff"/>
    <path d="M693.65797 94.00284" fill="#3f3d56"/>

    <style>
        .swing {
        animation: swing 5s infinite;
        animation-timing-function: ease-in-out;
        transform-origin: 590px 360px;
        }

        @keyframes swing {

        from {
        transform:rotate(6deg);
        }

        50% {
        transform:rotate(-6deg);
        }

        to {
        transform:rotate(6deg);
        }

        }
    </style>
</svg>