<?xml version="1.0" encoding="UTF-8" standalone="no"?>
<svg
   xmlns:dc="http://purl.org/dc/elements/1.1/"
   xmlns:cc="http://creativecommons.org/ns#"
   xmlns:rdf="http://www.w3.org/1999/02/22-rdf-syntax-ns#"
   xmlns:svg="http://www.w3.org/2000/svg"
   xmlns="http://www.w3.org/2000/svg"
   version="1.1"
   id="svg2"
   viewBox="0 0 2500 600.00001"
   height="600"
   width="2500">
  <defs
     id="defs4" />
  <metadata
     id="metadata7">
    <rdf:RDF>
      <cc:Work
         rdf:about="">
        <dc:format>image/svg+xml</dc:format>
        <dc:type
           rdf:resource="http://purl.org/dc/dcmitype/StillImage" />
        <dc:title></dc:title>
      </cc:Work>
    </rdf:RDF>
  </metadata>
  <path
     id="path4148"
     d="M 56.685714,397.74285 C 114.7789,438.06202 178.99432,474.24216 248.11429,489.17143 386.84858,519.13675 535.2445,511.25259 673.82857,480.6 768.34106,459.69534 842.76424,365.33183 939.54286,363.45714 c 44.02842,-0.85287 81.08974,34.6175 122.85714,48.57143 74.947,25.03878 149.8207,69.36227 228.5714,62.85715 83.6598,-6.91063 144.6516,-103.67484 228.5715,-105.71429 43.1397,-1.04839 80.088,32.16512 119.9999,48.57143 109.7692,45.12201 209.8944,136.14221 328.5715,137.14285 90.1919,0.76046 169.9815,-61.25064 251.4286,-100 66.9926,-31.87243 135.1136,-63.82194 194.2857,-108.57142 35.4506,-26.80983 52.951,-110.62427 94.2857,-94.28571 190.5263,75.31013 164.5554,469.11142 19.9999,614.28571 -665.5414,668.39011 -2231.27166,650.01631 -2828.57134,-80 -134.6449,-164.56223 -93.53027,-562.50419 108.57143,-628.57143 109.474116,-35.7872 153.952253,174.33023 248.571424,239.99999 z"
     style="fill:#afe9af;fill-opacity:1;fill-rule:evenodd;stroke:none;stroke-width:1px;stroke-linecap:butt;stroke-linejoin:miter;stroke-opacity:1" />
  <path
     id="path4146"
     d="m -100,340 c 29.804712,-60.33637 28.097406,126.18218 168.571429,160 0,0 101.719411,31.22934 154.285721,37.14286 77.61148,8.73101 157.87684,13.31249 234.28571,-2.85715 92.24758,-19.52142 165.72754,-109.58321 260,-111.42857 47.92312,-0.93808 87.83002,39.6229 134.28572,51.42857 105.2187,26.73896 215.50492,59.02571 322.85722,42.85714 90.1781,-13.58192 157.3816,-113.29952 248.5714,-114.28571 141.1788,-1.52681 247.3983,170.54923 388.5715,168.57143 80.9444,-1.13401 149.455,-63.14953 219.9999,-102.85714 26.9316,-15.15896 46.2387,-51.24891 77.1429,-51.42857 22.7174,-0.13206 36.5141,27.62674 57.1428,37.14286 121.7649,56.17082 306.971,5.74377 385.7143,114.28571 60.9815,84.05854 66.6861,239.86813 -8.5714,311.42853 C 1847.6705,1541.0352 162.68024,1634.8203 -334.28571,814.28571 -425.63482,663.46028 -100,340 -100,340 Z"
     style="fill:#87de87;fill-opacity:1;fill-rule:evenodd;stroke:none;stroke-width:1px;stroke-linecap:butt;stroke-linejoin:miter;stroke-opacity:1" />
  <path
     id="path3344"
     d="m -202.85694,531.42856 c 14.21239,-60.43909 4.35543,-164.80062 65.71428,-174.28572 39.541678,-6.11251 47.975691,64.14124 74.285714,94.28572 25.24501,28.92425 46.942558,63.33463 79.999999,82.85715 31.430654,18.5618 69.478201,24.17002 105.714287,28.57142 42.55495,5.16892 85.99145,2.10136 128.57143,-2.85714 45.45668,-5.29349 91.44927,-12.46645 134.28571,-28.57143 34.72116,-13.05392 68.5484,-30.6569 97.14287,-54.28571 42.20607,-34.87664 72.04708,-173.81029 105.71428,-125.71429 0,0 41.53254,88.15885 80,114.28571 64.78072,43.99866 150.74729,45.57728 228.57136,54.28572 91.81282,10.27377 186.38971,14.43488 277.14281,-2.85714 73.1466,-13.93729 134.1419,-77.78211 208.5714,-80 59.9129,-1.78531 111.5282,52.12055 171.4286,54.28571 65.5609,2.36976 135.8121,-10.91965 191.4285,-45.71429 40.7314,-25.48228 43.3829,-111.36427 91.4286,-111.42856 49.3862,-0.0661 55.845,83.2807 94.2858,114.28571 25.8608,20.85843 65.7143,37.14285 88.5714,45.71428 22.8571,8.57143 72.1017,9.55795 102.8571,-5.71428 22.3903,-11.11836 30.6908,-39.67219 48.5715,-57.14286 32.4483,-31.70422 85.7143,-100 105.7143,-85.71429 20,14.28572 52.1952,51.69151 82.8571,71.42858 22.9319,14.76123 49.0677,23.90233 74.2857,34.28571 61.8466,25.46498 158.7143,8.72143 188.5714,68.57142 32.0075,64.16046 -5.0265,163.32724 -62.8571,205.71429 -747.4366,547.83493 -2161.93843,664.78163 -2779.99989,-25.71428 -37.6692,-42.08389 4.21404,-113.59081 17.14285,-168.57143 z"
     style="fill:#5fd35f;fill-opacity:1;fill-rule:evenodd;stroke:none;stroke-width:1px;stroke-linecap:butt;stroke-linejoin:miter;stroke-opacity:1" />
</svg>
